<svg xmlns="http://www.w3.org/2000/svg" viewBox="0 0 376 88" width="376" height="88" shape-rendering="crispEdges">
<rect x="0" y="0" width="216" height="88" fill="#9b59b6"/>
<rect x="16" y="16" width="8" height="8" fill="#1a1a2e"/>
<rect x="24" y="16" width="8" height="8" fill="#1a1a2e"/>
<rect x="32" y="16" width="8" height="8" fill="#1a1a2e"/>
<rect x="40" y="16" width="8" height="8" fill="#1a1a2e"/>
<rect x="16" y="24" width="8" height="8" fill="#1a1a2e"/>
<rect x="48" y="24" width="8" height="8" fill="#1a1a2e"/>
<rect x="16" y="32" width="8" height="8" fill="#1a1a2e"/>
<rect x="48" y="32" width="8" height="8" fill="#1a1a2e"/>
<rect x="16" y="40" width="8" height="8" fill="#1a1a2e"/>
<rect x="24" y="40" width="8" height="8" fill="#1a1a2e"/>
<rect x="32" y="40" width="8" height="8" fill="#1a1a2e"/>
<rect x="40" y="40" width="8" height="8" fill="#1a1a2e"/>
<rect x="16" y="48" width="8" height="8" fill="#1a1a2e"/>
<rect x="48" y="48" width="8" height="8" fill="#1a1a2e"/>
<rect x="16" y="56" width="8" height="8" fill="#1a1a2e"/>
<rect x="48" y="56" width="8" height="8" fill="#1a1a2e"/>
<rect x="16" y="64" width="8" height="8" fill="#1a1a2e"/>
<rect x="24" y="64" width="8" height="8" fill="#1a1a2e"/>
<rect x="32" y="64" width="8" height="8" fill="#1a1a2e"/>
<rect x="40" y="64" width="8" height="8" fill="#1a1a2e"/>
<rect x="64" y="16" width="8" height="8" fill="#1a1a2e"/>
<rect x="96" y="16" width="8" height="8" fill="#1a1a2e"/>
<rect x="64" y="24" width="8" height="8" fill="#1a1a2e"/>
<rect x="96" y="24" width="8" height="8" fill="#1a1a2e"/>
<rect x="64" y="32" width="8" height="8" fill="#1a1a2e"/>
<rect x="96" y="32" width="8" height="8" fill="#1a1a2e"/>
<rect x="64" y="40" width="8" height="8" fill="#1a1a2e"/>
<rect x="96" y="40" width="8" height="8" fill="#1a1a2e"/>
<rect x="64" y="48" width="8" height="8" fill="#1a1a2e"/>
<rect x="96" y="48" width="8" height="8" fill="#1a1a2e"/>
<rect x="64" y="56" width="8" height="8" fill="#1a1a2e"/>
<rect x="96" y="56" width="8" height="8" fill="#1a1a2e"/>
<rect x="72" y="64" width="8" height="8" fill="#1a1a2e"/>
<rect x="80" y="64" width="8" height="8" fill="#1a1a2e"/>
<rect x="88" y="64" width="8" height="8" fill="#1a1a2e"/>
<rect x="112" y="16" width="8" height="8" fill="#1a1a2e"/>
<rect x="120" y="16" width="8" height="8" fill="#1a1a2e"/>
<rect x="128" y="16" width="8" height="8" fill="#1a1a2e"/>
<rect x="136" y="16" width="8" height="8" fill="#1a1a2e"/>
<rect x="144" y="16" width="8" height="8" fill="#1a1a2e"/>
<rect x="112" y="24" width="8" height="8" fill="#1a1a2e"/>
<rect x="112" y="32" width="8" height="8" fill="#1a1a2e"/>
<rect x="112" y="40" width="8" height="8" fill="#1a1a2e"/>
<rect x="120" y="40" width="8" height="8" fill="#1a1a2e"/>
<rect x="128" y="40" width="8" height="8" fill="#1a1a2e"/>
<rect x="136" y="40" width="8" height="8" fill="#1a1a2e"/>
<rect x="112" y="48" width="8" height="8" fill="#1a1a2e"/>
<rect x="112" y="56" width="8" height="8" fill="#1a1a2e"/>
<rect x="112" y="64" width="8" height="8" fill="#1a1a2e"/>
<rect x="160" y="16" width="8" height="8" fill="#1a1a2e"/>
<rect x="168" y="16" width="8" height="8" fill="#1a1a2e"/>
<rect x="176" y="16" width="8" height="8" fill="#1a1a2e"/>
<rect x="184" y="16" width="8" height="8" fill="#1a1a2e"/>
<rect x="192" y="16" width="8" height="8" fill="#1a1a2e"/>
<rect x="160" y="24" width="8" height="8" fill="#1a1a2e"/>
<rect x="160" y="32" width="8" height="8" fill="#1a1a2e"/>
<rect x="160" y="40" width="8" height="8" fill="#1a1a2e"/>
<rect x="168" y="40" width="8" height="8" fill="#1a1a2e"/>
<rect x="176" y="40" width="8" height="8" fill="#1a1a2e"/>
<rect x="184" y="40" width="8" height="8" fill="#1a1a2e"/>
<rect x="160" y="48" width="8" height="8" fill="#1a1a2e"/>
<rect x="160" y="56" width="8" height="8" fill="#1a1a2e"/>
<rect x="160" y="64" width="8" height="8" fill="#1a1a2e"/>
<rect x="224" y="0" width="152" height="88" fill="#1a1a2e"/>
<rect x="240" y="16" width="8" height="8" fill="#c39bd3"/>
<rect x="248" y="16" width="8" height="8" fill="#c39bd3"/>
<rect x="256" y="16" width="8" height="8" fill="#c39bd3"/>
<rect x="264" y="16" width="8" height="8" fill="#c39bd3"/>
<rect x="240" y="24" width="8" height="8" fill="#c39bd3"/>
<rect x="272" y="24" width="8" height="8" fill="#c39bd3"/>
<rect x="240" y="32" width="8" height="8" fill="#c39bd3"/>
<rect x="272" y="32" width="8" height="8" fill="#c39bd3"/>
<rect x="240" y="40" width="8" height="8" fill="#c39bd3"/>
<rect x="248" y="40" width="8" height="8" fill="#c39bd3"/>
<rect x="256" y="40" width="8" height="8" fill="#c39bd3"/>
<rect x="264" y="40" width="8" height="8" fill="#c39bd3"/>
<rect x="240" y="48" width="8" height="8" fill="#c39bd3"/>
<rect x="272" y="48" width="8" height="8" fill="#c39bd3"/>
<rect x="240" y="56" width="8" height="8" fill="#c39bd3"/>
<rect x="272" y="56" width="8" height="8" fill="#c39bd3"/>
<rect x="240" y="64" width="8" height="8" fill="#c39bd3"/>
<rect x="248" y="64" width="8" height="8" fill="#c39bd3"/>
<rect x="256" y="64" width="8" height="8" fill="#c39bd3"/>
<rect x="264" y="64" width="8" height="8" fill="#c39bd3"/>
<rect x="296" y="16" width="8" height="8" fill="#c39bd3"/>
<rect x="296" y="32" width="8" height="8" fill="#c39bd3"/>
<rect x="296" y="40" width="8" height="8" fill="#c39bd3"/>
<rect x="296" y="48" width="8" height="8" fill="#c39bd3"/>
<rect x="296" y="56" width="8" height="8" fill="#c39bd3"/>
<rect x="296" y="64" width="8" height="8" fill="#c39bd3"/>
<rect x="320" y="16" width="8" height="8" fill="#c39bd3"/>
<rect x="328" y="16" width="8" height="8" fill="#c39bd3"/>
<rect x="336" y="16" width="8" height="8" fill="#c39bd3"/>
<rect x="344" y="16" width="8" height="8" fill="#c39bd3"/>
<rect x="352" y="16" width="8" height="8" fill="#c39bd3"/>
<rect x="336" y="24" width="8" height="8" fill="#c39bd3"/>
<rect x="336" y="32" width="8" height="8" fill="#c39bd3"/>
<rect x="336" y="40" width="8" height="8" fill="#c39bd3"/>
<rect x="336" y="48" width="8" height="8" fill="#c39bd3"/>
<rect x="336" y="56" width="8" height="8" fill="#c39bd3"/>
<rect x="336" y="64" width="8" height="8" fill="#c39bd3"/>
</svg>